<svg id="Layer_1" data-name="Layer 1" xmlns="http://www.w3.org/2000/svg" viewBox="0 0 745.03 793"><defs><style>.cls-1{fill:#fff;}.cls-1,.cls-2{fill-rule:evenodd;}</style></defs><path class="cls-1" d="M23.5,0H768V793H23V1.8C23,.9,22.8,0,23.5,0ZM443.9,107.6c.5.1.6-.2.6-.6,2.5.6.1-1.8,0,0-.5-.1-.6.2-.6.6-2.6,0-1,4.1-2.4,5.3-6.1-2.3-12.2-8.5-10.1-16.6,1-3.7,6.7-6,7.1-10.1-1-3.3-.6-7.8,0-11.2-1.1-1.7-3.1-2.4-2.4-5.9-2.9.6-3.2-1.6-5.3-1.8-4.8,5.2-9.9,3.9-14.8,7.7-.1-.9.3-2.3-.6-2.4-1.4,2.2-5.1-3.1-6.5-4.7-1.1-3,3.5-3.5.6-4.7-2.8,1.4-3.5,4.4-7.7,3-1.3-.9.3-4.7-1.8-4.7-1.7.6-1.2,3.5-2.4,4.7-2.3.2-2.2-2.1-4.7-1.8.5,4.6,5.6,4.6,10.1,5.3,4.5,4,9.3,7.6,16.6,8.9,1.7,4.2,6.8,5.1,10.1,7.7-2.5,1.4-3.2,4.7-4.7,7.1-1.5,1.1-5,.2-5.9,1.8-3.1-.6-.7,1.8,0,0,6-1.7,2.9,8.4,3.5,10.1,11.3,16.7,29.1,26.9,45.5,38.4,7,12.5,15.4,23.6,23.1,35.5,4.5,2,6.5,6.5,6.5,13,1.4,7.5,2.6,20.7,1.8,26.6,3.2.4,1.8,5.3,2.4,8.3-2.6,2.5-13-.3-7.7-3.5-5.3,1.6-9.3-.5-12.4-2.8-.5-1.6-1.9-4.7-.6-5.7h-3c1.1-5-6.6-6.1-8.9-9.7,1.5-1.7,4.3-2.1,4.1-5.4,1.3.2,2.2-.2,2.4-1.2,3.1.6.7-1.8,0,0a2.71,2.71,0,0,0-2.4,1.2c-3.6,1.1-5.3,4.1-10.1,4.1-1.3-1.6-2.6-3.3-5.3-3.6-.5,1.5,1.8,3.2,0,4.1-4.1.7-4.5-2.2-5.3-4.7-1.9.1-3.6,0-4.1-1.2,1.9-8.6,11-9.9,20.7-10.6-2-1-4.6-1.3-4.7-4.1a5.56,5.56,0,0,1-2.4,2.4c-8.8.5-12,6.5-19.5,8.3a12.69,12.69,0,0,1-6.5-8.9c1.9-4.9,8.1-1.8,7.7-8.9-7.2-.3-19.3.9-18.9-8.9-2.6.3-2.9-.8-4.7,0-1,2.5,1.5,4.7,1.8,7.7,2.3.6,3.7-1.6,4.1.6-3.1.6-3.9,3.6-6.5,4.7-8.9-4.8-20.7-9.4-16-26-3.9-4.2-5.7-13.8-7.1-19.5-.7-2.7-1.8-7-1.8-10,.1-3.4,2.6-6.4,3.5-9.5,1.5-4.6,1.1-6.6,0-10.1-2.4.6-3.1.6-4.1-1.2.3,7,.2,13.6-3.5,16.6-2.9-.2-3.5,2-4.7,3.5,3.5,6.6,6.6,13.5,7.1,23.1a22.77,22.77,0,0,1-5.3,3c3.5.4,8.4,2.6,5.9,7.1-1.8-.1-3.1-2.6-4.7-1.2-.3.5-.5,1.1-1.2,1.2,1.2,5.1,6.7,6,8.3,11.8,1.3,4.7-.1,9.2-.6,14.8-.9,11.3,1.6,24.7-1.2,33.7-6.3-2.9-13.4-10.9-21.3-8.3,10.2,3.7,26.5,12.8,16.6,27.2-1.5-1.1-2.6-2.5-4.1-3.5-.1,3.2,3,3.1,3.5,5.9.9,4.5-2.4,9.3-3.5,13-1-.1-3-2-3.5-.6,2.2.6,3.3,2.3,3.5,4.7-1.5,1.1-4.5.6-5.9,1.8,1.3.9,4.4-.1,4.7,1.8-2.6,19.3-.3,35.2-1.8,56.8-1.7.5-2.2,2.2-3.5,3,2.3,11.4.5,17.8-7.1,24.8-2.8,2.6-9.4,8.4-11.8,10.1a23.43,23.43,0,0,1-13,3.5c-3.1,2.1-7.8,5.5-11.2,5.3.3-15-1.9-36.8,4.7-47.3-.5-4.9,1.4-7.2,2.4-10.6-2.2-1.3-2.7-.8-5.9-.6-1.7-6.5.6-14.6-.6-20.7-1-.1-1.5,1-1.8,0-.2-2.3.2-4.1,1.8-4.7,0,.9-.3,2.3.6,2.4,1.2-10,3.8-18.7,5.3-28.4.7-2,3.1-2.4,3.5-4.7.2-1.6-3.3.6-2.4-1.8-.6-3.5,3.8-5.1,4.1-8.9,0-.3-1.8-2.9-1.8-3-.8-6,2.6-13.1,4.7-18.3-1.9-7.1,3.3-12,5.3-18.3,1.7-.6-.2-2.5,0-3.5,2,.4,2.2-1,2.4-2.4-1.8,0-.6-1.5-.6-4.1,1.1,1.1,1.5.1,3,0,2.5-11.9,1.5-18.2,5.3-26.6-.5-1.3-3-.5-3.5-1.8,3.1-11.1-1.2-18.5-.6-29-1.3-.5-3.9-1.3-4.7-.6.1,27.9-.2,55.4-11.8,71.5-2.5.5-2.8-1.1-4.7-1.2,3.6,4.7,2.4,16.9-2.4,20.1,0,9.5-2.5,16.4-3.5,24.8-1.7,0-2.2,1.4-3,2.4,1.2,7.4-2.1,15-3.5,23.1-2.5,13.6-.7,29.3-5.3,41.4-.3,5.8,1,13.2-1.8,16.6-2.2,0-1.8-2.5-4.7-1.8,1.4,11,8,31.5,1.2,43.2,2.7,5.5,6.2,14.4,1.8,20.7-.2,6.7,2.3,17.7-.6,23.1,1.7,7.4,5.3,11.7,3.5,20.7,1.2-.2,1.9.1,1.8,1.2-2.1,3.8.5,12.3-3.5,14.2,1,1,2.7,1.3,3.5,2.4.8,9-.7,20-3.5,27.2-4-.7-5.8.9-8.9,1.2,1.6,2.2,5,2.5,7.1,4.1,5.5,14.9,3.1,34.6,10.6,47.9-.2,5,1.2,8.3,1.2,13-5.9,2.5-8.9-5.5-13-2.4-.1,1.7,5.3,6.1,2.4,10.6-12.1-6.7-25.2-15.2-21.9-35.5-1.8-.4-1.7,1-3.5.6.4-3.6-1.3-5-2.4-7.1-3.4.4-4.8-1.1-7.1-1.8-2.8-9.4-9.2-15.2-10.1-26.6,3.9-10.3-5.1-28.9,10.1-30.7-2.1-8.7-11.1-10.5-16.6-16-.7-2.5,1.2-2.3,1.2-4.1,2.5.6.1-1.8,0,0-1.6-.7-4.7,1.4-5.9,3,3.2,6.4,11.5,7.8,14.8,14.2-4.9,4.9-7.6,12.1-11.8,17.7-5.9-10.9-11.6-28.2-9.5-43.2-3.9-6.7-5.2-16-5.3-26.6,3.5-1.6,5.4-4.8,8.9-6.5-4.3-5.5-12.7.7-18.9.6-2.5-1.2,1.3-2.7-1.2-3-6.4-4.8-8.9-13.6-14.8-18.9-7.5-15.9-14.2-38.8-18.9-59.1-1.7-7.4-1.9-17.8,2.4-26.6-1.3-.5-.5-3-1.8-3.5-2.6,2-2.6,6.5-7.1,6.5-2.2-4.5-2.4-12.7-6.4-13.6,1.5-3.6-.9-6.4-2.9-8.9v-3.5c-6-7.2-8.1-18-9.5-29.6-.9-.9-2.5-1.1-3-2.4.9-4.1-1.4-4.9-1.8-7.7,13.1-19.6,27.8-37.6,41.4-56.8-.5-4.4,1.4-9.1.6-11.8-1.4,0-1.7-1-3.5-.6-2.7,13.1-7.2,24.4-18.3,29-4.3-.3-5.6-8.3-10.1-4.7.2,4.3,5,4,5.9,7.7-3.8,11.4-11.5,18.8-18.3,27.2a2.71,2.71,0,0,1-2.4-1.2c1.6-13.1.7-25.2,0-37.2-1.1-.9-2.3-1.6-3.5-2.4-2-10-2.1-27.5,1.2-36.1-2.8-2.5.9-11.5-3.5-12.4-1.5.3-2,1.6-3.5,1.8-.4,1.8.8,5.1-.6,5.9-1.9-.3-3.4-4.1-5.9-1.8,5.8,3.1,5.4,8.4,4.7,17.1-1.5,19.7,1,45,2.4,65,2.3,3.1,2.2,8.4,2.4,13.6-3.1,1.9-4.2,5.7-8.3,6.5-.6-4-5.9-8.7-3.5-11.8-6.6-.5-9-5.2-13-8.3,2.2,5,8.5,8.2,4.1,14.8,2.9,1.9,7.6,7.5,4.1,11.8-3.4.4-4.4-1.6-7.1-1.8.2,2-1.8,1.8-2.4,3,7.5.4,8.5,13.7,2.4,16.6-2.2-5.1-5.9-8.6-6.5-15.4a58.62,58.62,0,0,1-10.6-21.9,3.88,3.88,0,0,1-3-.6c-2.7-6.4-7.9-10.2-9.5-17.7-6.1-3.6-13.1-12.3-9.5-20.1-1,1.4-1.6,2.8-3.5,1.8a4.85,4.85,0,0,0,1.8-4.1c-3.1-.3-2.2,3.3-4.7,3.5-4-2.3-6.2-6.4-8.3-10.6-6.3-2-7.1-9.5-8.9-16a12.18,12.18,0,0,1-7.1-1.8c-1.3,3.2.7,6.2-.6,8.9-7.2-3-10.9-9.6-17.7-13,1.1,2.9.1,4.5-.6,7.1C57,160.3,63.2,162,66,167c14.3,5.3,20.1,18.9,30.2,28.4,4.2,7.9,11.6,12.4,13.6,22.5,5.5,4.2,8.2,11.1,10.6,18.3,3.7,4.1,5,10.8,7.7,16-3.8.1-5.8-1.6-9.5-1.8-.2,1.5-1.8,1.8-1.8,3.5,3.6,2.5,8.5,3.7,13.6,4.7,6.3,12.6,13.4,24.5,20.1,36.7-10.9,1.1-22.2-2.6-31.3-5.3-14.5,3.6-29.8-2.3-42-.6-1,1.9-1,2.5-.6,4.7,16.3,1.2,39.8,2.5,56.2,5.3,12.4,2.1,20.7.9,24.8,10.1.7,1.5,0,3.2.6,4.7,5.5,15.1,12.7,27.1,18.9,42.6-3.4-.2-7.5.4-10.1-.6-.8,3.6,3.2,3.3,5.3,2.4,2.6,1.3,4.5,3.4,8.3,3.5,2.2,11.4,11.6,15.6,14.8,26,4.8,3.9,9.2,8.1,10.6,15.4,5.8,3.2,8.8,9.3,10.6,16.6-.9.4.1.7,0,0,4.1,2.6,3.7,9.7,5.3,14.8,3,4.5,4.3,10.7,5.3,17.1,4.7,9.3,8.2,20.8,11.8,32.5s-1.2,25.8,10.6,30.2c3.1,7.1,8.1,13.8,10.6,21.3,2.2,6.6,2.5,8.2,5.9,13,5.4,7.7,10.1,16.5,17.1,22.5,3.7,6.5,9.1,11.4,14.2,16.6,7.8,10.6,17.2,20.1,21.3,34.9,3.3,11.8,4.1,25.6,4.1,41.4,3.5,14.4-1.9,31.2,3,47.3-1.5.1-2.1,1.1-3,1.8-4.1-4-6.5,5.2-10.6,3,.4-1.5,3.4-.6,3.5-2.4-1.9-3.5-4.1-1.5-8.9-1.8-2.9-5.5-5.9-11-10.6-14.8-2.9-5.4.3-10.4,1.2-14.8,1-5.1-.1-8.5,3-11.8.4-.4,2-.1,2.4-.6,2.3-3.2,3.7-7.5,5.3-11.2-1.4-2.3-5.9-1.7-6.5-4.7,2.5,0,.1-2,0,0h-1.8c-1.8,1-2.4,6.7-6.5,7.6-1.2-1.2-.8-4-2.4-4.8-9.3,5-13.7,15.1-18.3,24.8-.6-.4-.6-1.4-1.8-1.2-5.8,4-2.9,17-1.2,23.1-.7,2.2-4,1.9-3.5,5.3-.3,1.9,2.9.2,2.4,2.4.2,1-.5,1.1-1.2,1.2-.4-.9-.7.1,0,0-.1,7,4.4,11.9,6.5,18.3a15.31,15.31,0,0,0-1.2,9.5c-6.2,3.6-12.4,7.4-13.6,16,1.5,2.9,4.8,3.9,4.1,8.9,4.6.9,4.3,6.8,6.5,10.1.7-1.9-1.8-3.6,0-4.7,1.8-.4,1,1.6,2.9,1.2,1.2-.4-.3-3.5,1.7-3v.6c2-.2,2.3.2,2.2,1.8-.1,1.3-1.2,1.3-3.2,1.2v3.5c-4,1.2-1.2,5.6-1.5,10.6,1.7.3,5.2-1.1,4.3,1.8-2.5-.6-.1,1.8,0,0,2.1-3.2,1.4-5.9,1.3-10.6,1.8.9,2.9-.5,4.8-1.2-.4-.9-1.9-.9-1.8-2.4,1-.6,1-2.2,3-1.8-.1,1.5-.1,2.8.6,3.5,2.2-.3,2.2-2.9,3.5-4.1-.6-1-2.2-1-1.8-3,1.9.5.8-2,2.4-1.8,1.5,3.8-1.2,7.6,3,9.5-1.1-5.4,2.7-6,3-10.1,1.2,1.3,1.1,2,3.5,3-1.2.8-3.3.6-2.4,3.5.5,1.7,1.5-.8,3,0,1,1.9-1.1,3.2,1.2,3.5,2.5.1.5-4.2,3.5-3.5.5,2.3-2.1,1.5-1.2,4.1,1.9-.7,1.4.9,2.4,1.2,3.3-2.5.6-7.6,4.1-9.5q-2,.15-1.8-1.8c2.6-.3.7-5.2,3-5.9.2,2.2-2.2,5.9,0,6.5,1.9-7.1,9.2-8.1,16.6-5.9.8-1.3-1.5-2.2,0-2.4,2.7.9,7.3-.2,8.9,1.8-1.4.4-4.3-.7-4.7.6,4.2,1.9,7.5-3.2,10.1.6-2.3,1.8-1.6,6.6-3.5,8.9,2.2.1,4.4.6,5.9,0-.5-.5-1.6-.4-1.8-1.2,2-.1,4.2-.3,4.7,1.2,2-2.2,2.7-5.6,3.5-8.9,5.9.8,3.4,8.1,4.7,12.4,2.6.8,3.9.1,5.9.6,3.4-5.2-2.3-8.2-2.4-13.6,1.2-1.7,5.4-3,3.5-5.9-3.6-.1-3.3,3.8-6.5,4.1,1-3.3-1.9-4.7-.6-6.5a87.08,87.08,0,0,0,10.1-6.5c1.7,1.8,3.1.4,4.7,1.8.9-.1.2-1.8,1.2-1.8,1.8.6,6.5,1.3,7.7.6-.6,0-.5-.7-.6-1.2,3.2.1,3.5,3.2,5.9,4.1,3-.4-1.7-1.3-.6-3.5a1.63,1.63,0,0,0,2.4,0c.1-1.7-2-1.2-1.2-3.5,1.1-1.2,2.4-1.4,4.1-.6.3-.9-.8-3.1.5-3,2,1.6,2.4,4.7,3.4,7.1v.3h1.5c.2,0-.5-.7-1.2-.7,0-.9-.3-2,.6-2.1,1.9-.7.5,2,2.4,1.3-.4-4,1.5-7,3.5-2.9-2.5-.6-.1,1.8,0,0,3-.8.3-5.1-1.2-5.3,2,.6.9-1.8,1.2-2.9,2.3.4.8-3.1,3-2.9,1.2,5.5,2.4,10.8,5.9,13.9.7-7.3-4.2-8.2-3-16.2h-3.5c.6-2-1.8,0,0,0-.3-2-.8,1.5-1.8,1.5-7.2-11.2.4-23.4,5.3-32.4.3-4.4.5-10.3,4.7-12.3-2,.6-.9-1.8-1.2-2.9-1.9.7-1.4-.9-2.4-1.2-5.3,2.2-5.8,9.2-9.5,13-5.6-4.6-1.5-11.2-.6-16,.5-2.8-.9-6-.6-8.9s2-4.7,3.5-8.3c3.6-8.3,2.9-18,8.3-23.6,9.3-5.9,14.8-15.6,21.3-24.2,5.2-.2,11.4,4.1,15.4,1.2a3.22,3.22,0,0,0-1.8-.6c-4.4-2.9-7.9-1.1-12.4-3,3.3-10.9,7.3-21.1,10.6-31.9,3.8-4.8,9.8-10.1,13-15.4,5.5-9.1-2.3-18.1-1.2-28.4.9-8.2,7.3-13.2,9.5-20.1,5-4.7,10.1-4.7,17.7-5.9,33.4-5.2,67.7-15.7,98.1-24.8,23.2-3.2,48-12.4,75.7-12.4,6.1,0,11.9.9,17.1,1.2,16.1.7,29.7-1.4,45.5-6.5a71.47,71.47,0,0,1,14.8-2.4c-.8-4,2.4-8.4,1.2-12.4-7.1,2.2-12.9,5.6-20.7,7.1-.7-2.5-.8-5.9-3.5-7.7-1.1,1.8-.3,5.6-3,5.9,0,2.2,3.7.7,3.5,3-9.9,6.3-27.8,4.6-40.8,3.5-3.2-.2-7.9,2.4-8.9-2.4-2.5,2.4-11.4,3.9-14.2.6-7.3,2.3-19.4,5-26.6,3.5-1.6,2.8-9.2,3.4-11.2.6-.1-5.5-5.1-13.2-.6-17.7,1.1.5,3.1,2.2,3.5,0-.9-.5-2.3-.5-1.8-2.4,4.4-2.4,10.9-8,17.1-4.7-1.2-3.7,3.1-6,7.1-7.7-.2-1.8-1.3-2.7-1.8-4.1-9.1,2.1-14.4,8.1-26.6,7.1-.8-.1-1.2,3-1.8,1.2-.3-6.4,6-5.7,10.1-4.1a26.36,26.36,0,0,0-6.5-9.5c-4.6,3.3-8.3,7.5-9.5,14.2-4,.4-4.3,1.5-7.7,1.8.2,3.1,4.6,1.9,5.9,4,.1,5.4,2.8,8.6,1.8,14.6H592a15.9,15.9,0,0,1,4.7,10.8c-11.3-1.4-30.5,9.1-35.5,2.5,1.5-3.5,5.9-3.9,7.1-7.6-8-2.4-10.4,10.3-16,14.2-7,3.5-16.4,4.5-24.2,7.1-4.3-1.4-15.6,5.2-20.1.6.2-4.4,3.5-8.4,0-11.8,3.5-7.1,7.1-14.1,10.1-21.9-1.4-1.9-4.9-.6-7.1,0-2.8,12.3-9.6,20.7-9.5,36.1-8.8,6.3-26.6,0-37.2,4.1.5-2.8-2.6-2.1-1.8-5.3-3.7.7-4.7.5-7.7,1.8-2.6,11.2-13.3,14.3-14.8,26.6-1.5,1.9-4.6,2.1-8.3,1.8-2.6-1.9-4.6-4.5-8.9-4.7-4.2-4.9-6.4-12.8-5.9-20.7,3.2-3.5,9.3-.4,12.4-1.8a3.88,3.88,0,0,1-3-.6c1.8-2,.2-3.1,0-5.9-7.3.5-15.9-2.7-10.6-9.5,28.8-6.4,57.6-6.9,76.3-22.5,2.6-2.2,5.1-6.5,8.9-8.3,1.1-.3,3.6.8,3-1.2-3.3-3.1-7.8-3.5-12.4-3.5-1.8,1.1,2.2,2.3,0,3.5-3.7.5-3.5-2.8-7.1-2.4-.9,5.4,5.9,3.1,8.9,4.7-3.3.4-3.4,4.1-5.3,5.9-6.5,6.3-16,9-26.6,11.2-1-1.9,2.8-2.8,0-3-1.7.5-1.5-.8-3-.6-2.7,5-9.8,3-16,3.5-6.8.6-14.4,6.3-20.1.6,17.7-13.8,42.1-21,57.9-36.7,6.8-2.2,13.6-4.5,20.1-7.1,1.6-3.3,9.1-6.4,12.4-4.1,2.4-2.8,4.4-5.9,9.5-5.9,4.3-7.1,14.8-8.1,19.5-14.8-1.3-2.1-2.5-1.5-5.3-1.2-.4-1.7-1.4-4.8-3.5-3-1.3.6.8,2.7,0,4.7-10.3,3.3-14.7,12.5-27.8,13-.3-2.1-.7-4-3-4.1-1.9.6-.4,4.7-1.8,5.9-1.8.4-5.1-.8-5.9.6,1.8,1.6,4.3-1.2,5.9.6-6.2,2.4-11.7,5.6-20.1,5.9-3.9,3.2-10,4.2-12.4,8.9-3.4.9-5,3.7-8.9,4.1a81.33,81.33,0,0,1-25.4,16c-1.1,1.1-3.2,4.3-5.3,2.4,3-1.8-1-2.1-.6-4.7.1-1.6,1.7-1.8,3-2.4-.6-6.7,2.8-9.4,7.7-10.6-1.6-4,1.1-7.6,5.9-7.1.3,1.6-2.2.6-2.4,1.8,3.1.1,6.2.3,7.1-1.8,0-3.3-3.5-3.2-3.5-6.5,2.1-2,3.6-4.7,5.3-7.1-2.6-.8-2.7,2-4.1.6.1-2.5.2-4.9-1.2-5.9-1.4,0-1.7,1-3.5.6-.9,1.9-.6,5-.6,7.7-9.9,9.8-14.6,27.9-31.3,29,.3-2.1.9-3.8.6-6.5,1.2-.4,4.1,1,3.5-1.2-7.9-1.2-3.8-12.1,1.8-13-.7-3.4,2.3-3.2,1.8-6.5,21.9-24.2,43.6-48.7,65.6-72.7,1.5-2.8,1.8-6.8,4.7-8.3,5.3-20,18.6-31.8,24.8-50.8A89.45,89.45,0,0,0,524,252.9c1.8-1.5,5.6-1.1,7.1-3-1.2-.4-3.9.7-4.1-.6-.3-7,8.2-8.3,6.5-14.8-.6.6-.2,2.3-1.8,1.9a4.1,4.1,0,0,0-1.2-4H527c-5-9-9.8-30-2.4-39h3c-1.5-2-1.9-3.5-4.1-3.7-.2-1.4,1.1-1.4.6-3,5.1-3.2,11.8-4.7,18.3-7.7,7.2-3.4,14.8-8.7,22.5-10.7,19.5-4.9,42,1.4,54.4-11.8-2.5-4.4-6.3,1.3-10.6.6-2.7,5.1-9,3-14.2,3.5-3.6.4-7,2.2-10.6,2.4a159.59,159.59,0,0,1-18.3,0c3-6.7,12.4-8.2,18.9-12.4,2.8-1.8,4.6-4.4,7.1-5.9,4.6-2.7,10.1-4.1,14.8-7.1-.6-2.3,1.3-3.4,0-4.7-3.1-.8-3,1.7-5.9,1.2-1-1.4-4.2-.5-5.3-1.8-.8-2.8,1.9-3.9.6-5.3a13.15,13.15,0,0,0-3.5-1.2c-4.6,5.8-6.1,12.6-11.8,16.6-2.4,1.7-5.8,1.3-8.3,3-1.9,1.2-2.9,3.9-4.7,5.3-4.2,3.4-9.5,4.7-13.6,7.7-.7,6.1-7.7,5.1-14.2,7.1-10.3,3.3-17,12-28.4,11.8-3.5-4.2,2.1-9.2.6-13-2.1,1.4-2.7,1.9-5.9,1.2-.7-3.6-.6-8-.6-12.4-8.5-.4-1.5,9.5-6.5,11.2a11.25,11.25,0,0,1-6.5-10.1c6.4-5.2,9.3-14,15.4-19.5.5.1.6-.2.6-.6q1.05.15,1.2-.6c.9-.4-.1-.7,0,0q-1.05-.15-1.2.6c-.5-.1-.6.2-.6.6-9.4,2.9-11.9,12.6-20.1,16.6-12.3-9.5-6-38.2-7.7-56.8.2-1.5,1.8-1.8,1.8-3.5-1.2.2-1.8-.1-1.8-1.2-1-11.6.9-20.8.6-33.1.6,0,.5-.7.6-1.2,5.9-3.5,12.1-6.8,20.7-7.7-.7-2.5,4.7-2,3-3.5-1.2,1.4-4.9.2-7.1.6-2.4-1.8-1.8-6.5-5.3-7.1-2.7,6.3-7.2,10.9-14.8,12.4-2.9-9.5-4-23.2-4.1-33.7-2.2-.5-2.8.7-4.7.6-2.3,13.4,3.9,25.9,1.8,39-2.1.6-5.2-3-5.9,0,9.8,2.8,6.1,20.9,6.5,34.9.2,6.7.3,14.1,0,20.7-.4,7.7.8,16.4-3.5,20.1-.4-.8-2.3-.1-2.4-1.2.4-1,1.8-1,2.4-1.8-.9-.9-3-.5-4.7-.6-6-4.8-14.3-5.4-18.9-12.4C443.4,113,442.8,109.8,443.9,107.6Zm-85.7,83.3c.3.4-.3-.2,0,0Zm121.2,6.6c-2.5-.6-.2,1.7,0,0,1.5.9,1.7-2,.6-1.8A2.1,2.1,0,0,0,479.4,197.5Zm3.5-1.8c-.7.1-1.7-.1-1.8.6C481.8,196.2,482.8,196.4,482.9,195.7Zm-328.7,23c.4.4-.3-.2,0,0Zm340.5,4.8c1.5.6,3.4-1.2,1.8-1.8C496.4,222.8,494.6,222.1,494.7,223.5Zm21.9,190.3c0-.6-1-.7-1.2,0C516.1,413.8,516.3,414.7,516.6,413.8Zm104.7,50.9c-3.8-.7-1.3,1.8,0,0Zm-340,123.6c-.5.1-1.2,0-1.2.6C280.6,588.7,281.3,588.8,281.3,588.3Zm462.3,7ZM443.9,616c.4.4-.3-.2,0,0Zm37.2,3c.4.4-.2-.3,0,0ZM293.7,641.5c.4.4-.2-.3,0,0Zm104.7,85.7c.6,2.3.6-2.3,0,0ZM397,746.1c2,.9,2-2.6,0-1.8Zm-1.6,7.7c.5-1.3,1.2-2.3,1.2-4.1-2.5.7-1.1-2.5-2.4-3C392.4,748.6,393.9,751.9,395.4,753.8Zm3-5.9Zm-33.7.6c-.5.1-1.2,0-1.2.6C363.9,748.9,364.6,749.1,364.7,748.5Zm1.1.6c.4.4-.2-.3,0,0Zm-4.1,10.6c1.4.1,7.5.6,8.3-1.8-.9-1.4-5,.2-5.3-1.8,2-1.5,4.1-3,5.3-5.3-2.8,1.1-3.3-.2-5.3-1.2C363,752.3,361.3,755,361.7,759.7Zm9.5-.6c.4.4-.3-.2,0,0Zm-42,1.8c-.5.1-1.2,0-1.2.6C328.5,761.3,329.2,761.5,329.2,760.9Zm0,7.7c-1.9-.5-.8,1.8-2.4,1.7-.5-2.2,1-4.2,0-4.2H323v3.8c1,.4,2.3-1.7,2.8,0-.8.9-3.2.5-3,2.4,1.1.2,2.9,2.5,4.1.6-.7-.1-1.4-.2-1.2-1.2,3.2-.3,4.3,1.9,5.9,3.2,0-2.7,4.5-2.7,1.8.3h3c-1-3-1.9-5.4,0-7.3C332.8,767,326.7,764.4,329.2,768.6Zm17.1,2.9Zm-75.6,4.2c-.5.1-1.2,0-1.2.6C269.9,776.1,270.6,776.2,270.7,775.7Zm23.6,2.3c1.2.5,2.7-1.5,1.2-1.8C295.3,777.1,294.5,777.3,294.3,778Zm5.3.6Z" transform="translate(-22.97)"/><path class="cls-2" d="M507.7,134.2c-6.1,5.5-9,14.3-15.4,19.5.3,5.3,2.9,8.1,6.5,10.1,5-1.7-2-11.7,6.5-11.2,0,4.4-.1,8.8.6,12.4,3.2.8,3.8.2,5.9-1.2,1.5,3.8-4.1,8.8-.6,13,11.4.2,18-8.6,28.4-11.8,6.4-2,13.5-1,14.2-7.1,4.1-3,9.4-4.3,13.6-7.7,1.8-1.4,2.8-4.1,4.7-5.3,2.5-1.6,5.9-1.3,8.3-3,5.7-4,7.2-10.8,11.8-16.6a12,12,0,0,1,3.5,1.2c1.3,1.4-1.4,2.5-.6,5.3,1.1,1.3,4.3.4,5.3,1.8-3.3,1.2-8.8.2-10.1,3.5,1.8,1.6,8.6-1,10.1-3.5,2.9.5,2.8-2,5.9-1.2,1.3,1.3-.6,2.4,0,4.7-4.7,3-10.2,4.4-14.8,7.1-2.5,1.5-4.3,4.1-7.1,5.9-6.5,4.2-15.9,5.8-18.9,12.4a159.6,159.6,0,0,0,18.3,0c3.7-.2,7-2,10.6-2.4,5.2-.6,11.5,1.5,14.2-3.5,4.3.7,8.1-5,10.6-.6-12.4,13.2-34.9,6.9-54.4,11.8-7.6,1.9-15.2,7.3-22.5,10.6-6.5,3-13.2,4.5-18.3,7.7.5,1.7-.8,1.7-.6,3.1,2.3.2,2.6,1.7,4.1,3.7h-3c-7.5,9-2.6,30,2.4,39h3.5a4.19,4.19,0,0,1,1.2,4c1.6.4,1.1-1.3,1.8-1.8,1.7,6.5-6.8,7.7-6.5,14.7.3,1.3,2.9.2,4.1.6-1.5,1.9-5.3,1.4-7.1,2.9a88.89,88.89,0,0,1-11.2,30.1c-6.2,19-19.6,30.9-24.8,50.8-2.9,1.4-3.2,5.4-4.7,8.3-22.1,24-43.7,48.5-65.6,72.7.5,3.3-2.4,3.1-1.8,6.5-5.6.9-9.7,11.8-1.8,13,.6,2.1-2.3.8-3.5,1.2.3,2.7-.3,4.4-.6,6.5,16.7-1.1,21.4-19.2,31.3-29,0-2.7-.3-5.8.6-7.7,1.8.4,2.2-.6,3.5-.6,1.4,1,1.3,3.4,1.2,5.9,1.4,1.4,1.6-1.4,4.1-.6-1.7,2.4-3.2,5.1-5.3,7.1.1,3.3,3.5,3.2,3.5,6.5-.9,2.1-4,1.9-7.1,1.8.2-1.2,2.6-.1,2.4-1.8-4.8-.5-7.5,3.1-5.9,7.1-4.8,1.3-8.3,3.9-7.7,10.6-1.2.6-2.8.7-3,2.4-.5,2.6,3.6,3,.6,4.7,2.2,1.9,4.3-1.2,5.3-2.4a78.48,78.48,0,0,0,25.4-16c3.9-.5,5.4-3.2,8.9-4.1,2.4-4.7,8.5-5.7,12.4-8.9,8.4-.3,13.9-3.5,20.1-5.9-1.6-1.8-4.1,1-5.9-.6.8-1.3,4.1-.2,5.9-.6,1.3-1.2-.1-5.3,1.8-5.9,2.2.1,2.7,2.1,3,4.1,13.1-.5,17.5-9.7,27.8-13,.8-2-1.3-4.1,0-4.7,2.1-1.8,3.2,1.2,3.5,3,2.8-.3,4-.9,5.3,1.2-4.7,6.7-15.2,7.7-19.5,14.8-5.1,0-7.1,3.1-9.5,5.9-3.4-2.2-10.8.8-12.4,4.1-6.5,2.6-13.3,4.9-20.1,7.1-15.9,15.7-40.3,22.8-57.9,36.7,5.7,5.7,13.3,0,20.1-.6,6.2-.5,13.3,1.4,16-3.5,1.4-.2,1.3,1.1,3,.6,2.8.1-1,1,0,3,10.6-2.2,20.1-4.9,26.6-11.2,1.9-1.8,2-5.5,5.3-5.9-2.9-1.6-9.8.7-8.9-4.7,3.6-.4,3.4,2.9,7.1,2.4,2.2-1.2-1.8-2.5,0-3.5,4.6.1,9.1.5,12.4,3.5.6,2-1.8.9-3,1.2-3.7,1.8-6.3,6.1-8.9,8.3-18.7,15.6-47.5,16.1-76.3,22.5-5.2,6.7,3.3,9.9,10.6,9.5.2,2.8,1.8,3.9,0,5.9a3.88,3.88,0,0,0,3,.6c-3.1,1.4-9.3-1.7-12.4,1.8-.5,7.8,1.7,15.8,5.9,20.7,4.3.2,6.3,2.8,8.9,4.7,3.6.3,6.8.1,8.3-1.8,1.5-12.3,12.2-15.4,14.8-26.6,3-1.3,3.9-1.1,7.7-1.8-.8,3.2,2.3,2.5,1.8,5.3,10.7-4.2,28.4,2.1,37.2-4.1-.2-15.3,6.6-23.7,9.5-36.1,2.2-.6,5.7-1.9,7.1,0a229.57,229.57,0,0,1-10.1,21.9c3.5,3.4.2,7.4,0,11.8,4.5,4.6,15.8-2,20.1-.6,7.9-2.6,17.3-3.6,24.2-7.1,5.5-4,8-16.6,16-14.2-1.2,3.8-5.6,4.2-7.1,7.7,4.9,6.6,24.2-3.9,35.5-2.5a16.36,16.36,0,0,0-4.7-10.8h2.4c1-6-1.7-9.2-1.8-14.6-1.3-2.1-5.7-.9-5.9-4,3.3-.2,3.7-1.4,7.7-1.7,1.2-6.7,4.9-10.9,9.5-14.2a25.55,25.55,0,0,1,6.5,9.5c-4.1-1.6-10.3-2.3-10.1,4.1.6,1.8,1-1.3,1.8-1.2,12.2,1,17.5-5,26.6-7.1.5,1.5,1.6,2.3,1.8,4.1-4,1.7-8.3,4-7.1,7.7-6.3-3.3-12.7,2.3-17.1,4.7-.5,1.9.9,1.9,1.8,2.4-.5,2.2-2.4.5-3.5,0-4.5,4.5.5,12.3.6,17.7,2.1,2.8,9.6,2.2,11.2-.6,7.2,1.5,19.3-1.3,26.6-3.5,2.8,3.3,11.7,1.8,14.2-.6,1,4.8,5.7,2.1,8.9,2.4,13,1,30.9,2.8,40.8-3.5.1-2.3-3.6-.8-3.5-3,2.6-.3,1.8-4.1,3-5.9,2.8,1.8,2.8,5.1,3.5,7.7,7.8-1.5,13.6-4.9,20.7-7.1,1.2,4-2,8.5-1.2,12.4a65.35,65.35,0,0,0-14.8,2.4c-15.9,5.1-29.4,7.3-45.5,6.5-5.3-.2-11-1.2-17.1-1.2-27.7,0-52.4,9.2-75.7,12.4-30.4,9.1-64.7,19.6-98.1,24.8-7.6,1.2-12.7,1.2-17.7,5.9-2.2,7-8.6,11.9-9.5,20.1-1.1,10.2,6.6,19.3,1.2,28.4-3.2,5.3-9.3,10.5-13,15.4-3.4,10.8-7.3,21-10.6,31.9,4.5,1.8,8,.1,12.4,3-.6,0-.5.7-.6,1.2.6,0,.5-.7.6-1.2a3.22,3.22,0,0,1,1.8.6c-4,2.9-10.2-1.4-15.4-1.2-6.5,8.7-12,18.4-21.3,24.2-5.4,5.6-4.7,15.3-8.3,23.6-1.5,3.5-3.3,5.4-3.5,8.3s1.1,6.1.6,8.9c-.9,4.7-5,11.3.6,16,3.7-3.8,4.1-10.9,9.5-13,.9.3.5,1.9,2.4,1.2.3,1.1-.8,3.6,1.2,3-4.2,2-4.4,8-4.7,12.4-4.9,9-12.5,21.1-5.3,32.2,1,0,1.5-.5,1.8-1.5h3.5c-1.3,8,3.7,9,3,16.2-3.6-3.1-4.7-8.5-5.9-14-2.1-.1-.6,3.4-3,3,0-.6-.7-.4-1.2-.6,0,.6.7.5,1.2.6-.3,1.1.8,3.6-1.2,3,1.4.2,4.2,4.5,1.2,5.3-2-4.1-4-1-3.5,3-1.9.7-.5-1.9-2.4-1.2-.9.1-.5,1.4-.6,2.4-1.1-2.4-1.6-5.5-3.5-7.1-1.3-.1-.3,2.1-.6,3-1.8-.8-3-.6-4.1.6-.8,2.4,1.3,1.9,1.2,3.5a1.63,1.63,0,0,1-2.4,0c-1.1,2.2,3.6,3.2.6,3.5-2.4-1-2.7-4-5.9-4.1-.2-1.1-2.7-.1-1.8-2.4-1.6.7-.3,3.4,1.8,2.4.1.5,0,1.2.6,1.2-1.2.7-5.9,0-7.7-.6-1,0-.3,1.6-1.2,1.8-1.6-1.4-3,0-4.7-1.8a87.08,87.08,0,0,1-10.1,6.5c-1.4,1.8,1.6,3.2.6,6.5,3.2-.4,2.9-4.2,6.5-4.1,1.9,2.9-2.3,4.2-3.5,5.9,0,5.4,5.8,8.4,2.4,13.6-2-.5-3.3.2-5.9-.6-1.4-4.3,1.2-11.6-4.7-12.4-.8,3.3-1.6,6.7-3.5,8.9-.5-1.5-2.7-1.2-4.7-1.2.2.8,1.3.7,1.8,1.2-1.5.6-3.7.1-5.9,0,1.9-2.2,1.2-7.1,3.5-8.9-2.6-3.8-5.8,1.3-10.1-.6.4-1.3,3.3-.2,4.7-.6-1.6-2-6.2-.9-8.9-1.8-1.5.1.8,1,0,2.4-7.3-2.2-14.7-1.2-16.6,5.9-2.2-.6.2-4.3,0-6.5-2.2.7-.3,5.6-3,5.9q-.15,2,1.8,1.8c-3.5,1.9-.8,6.9-4.1,9.5-.9-.3-.5-1.9-2.4-1.2-.9-2.6,1.7-1.8,1.2-4.1-3-.7-1.1,3.7-3.5,3.5-2.2-.4-.2-1.6-1.2-3.5-1.5-.8-2.5,1.7-3,0-.9-2.9,1.2-2.8,2.4-3.5-2.4-.9-2.3-1.7-3.5-3-.3,4.1-4,4.6-3,10.1-4.2-1.8-1.4-5.7-3-9.5-1.6-.2-.5,2.3-2.4,1.8-.4,2,1.2,1.9,1.8,3-1.3,1.3-1.3,3.8-3.5,4.1-.7-.7-.7-2.1-.6-3.5,0-3.2-.6-6.3.6-10.6-2.7.3-2.6,3.3-3.5,5.3a5.6,5.6,0,0,1-2.4-3c-1.6.1-1.7,1.9-3,2.4,3.6,1.6,5.2,1.6,8.2,4.7v1.2c-2-.4-1.9,1.2-2.9,1.8-.1,1.5,1.3,1.4,1.8,2.4-1.8.6-2.9,2-4.7,1.2.1,4.7.9,7.5-1.2,10.6.9-2.8-2.8-1.5-4.4-1.8.3-5.1-2.5-9.4,1.5-10.6v-3.5c2,.1,3.1.1,3.2-1.2.2-1.6-.2-1.9-2.2-1.8v-1.2h2c-.1-1-1.8-.5-1.8.3-2.1-.6-.6,2.7-1.8,3.1-1.8.4-1.1-1.6-3-1.1-1.8,1.1.7,2.8,0,4.8-2.2-3.3-1.9-9.1-6.5-10,.6-5-2.7-6-4.1-8.9,1.2-8.6,7.4-12.3,13.6-16a15.31,15.31,0,0,1,1.2-9.5c-2.1-6.5-6.6-11.4-6.5-18.3.7-.1,1.4-.2,1.2-1.2.6-2.1-2.7-.5-2.4-2.4-.5-3.5,2.8-3.1,3.5-5.3-1.7-6.1-4.6-19,1.2-23.1,1.2-.2,1.2.8,1.8,1.2,4.6-9.8,9-19.8,18.3-24.8,1.6.8,1.2,3.6,2.4,4.8,4.1-.9,4.7-6.6,6.5-7.6h1.8c.6,3,5.1,2.3,6.5,4.7-1.7,3.6-3,8-5.3,11.2-.3.5-2,.1-2.4.6-3.1,3.3-1.9,6.7-3,11.8-.9,4.4-4.1,9.3-1.2,14.8,4.7,3.8,7.7,9.2,10.6,14.8,4.8.3,7-1.7,8.9,1.8-.2,1.8-3.1.8-3.5,2.4,4.1,2.3,6.5-7,10.6-3,.9-.7,1.4-1.7,3-1.8-4.9-16.1.6-32.9-3-47.3,0-15.8-.9-29.6-4.1-41.4-4.1-14.8-13.5-24.3-21.3-34.9-5.1-5.1-10.5-10-14.2-16.6-7.1-6-11.7-14.7-17.1-22.5-3.4-4.8-3.7-6.4-5.9-13-2.5-7.5-7.6-14.2-10.6-21.3-11.8-4.4-7-18.5-10.6-30.2s-7.1-23.2-11.8-32.5c-1-6.5-2.3-12.7-5.3-17.1-1.6-5.1-1.3-12.1-5.3-14.8-1.8-7.3-4.8-13.3-10.6-16.6-1.4-7.3-5.8-11.5-10.6-15.4-3.2-10.4-12.5-14.7-14.8-26-3.8-.1-5.6-2.2-8.3-3.5-2.1.9-6.1,1.2-5.3-2.4,2.5,1,6.7.4,10.1.6-6.2-15.5-13.4-27.5-18.9-42.6-.5-1.5.1-3.2-.6-4.7-4.1-9.2-12.4-7.9-24.8-10.1-16.4-2.8-39.9-4.1-56.2-5.3-.4-2.3-.4-2.8.6-4.7,12.2-1.7,27.4,4.2,42,.6,9.1,2.7,20.4,6.4,31.3,5.3-6.7-12.2-13.8-24-20.1-36.7-5.1-1-10-2.2-13.6-4.7,0-1.8,1.5-2,1.8-3.5,3.6.1,5.6,1.9,9.5,1.8-2.7-5.2-4-11.8-7.7-16-2.4-7.2-5.2-14.2-10.6-18.3-2-10.1-9.4-14.6-13.6-22.5-10-9.5-15.9-23.1-30.2-28.4-2.9-5-9-6.7-12.4-11.2.7-2.5,1.7-4.2.6-7.1,6.8,3.4,10.5,10,17.7,13,1.3-2.7-.7-5.7.6-8.9a12.18,12.18,0,0,0,7.1,1.8c1.8,6.5,2.5,14,8.9,16,2.1,4.2,4.2,8.4,8.3,10.6,2.5-.2,1.7-3.8,4.7-3.5a4.85,4.85,0,0,1-1.8,4.1c2,1,2.6-.4,3.5-1.8-3.7,7.8,3.4,16.5,9.5,20.1,1.6,7.5,6.8,11.4,9.5,17.7a3.88,3.88,0,0,0,3,.6,58.62,58.62,0,0,0,10.6,21.9c.6,6.7,4.3,10.3,6.5,15.4,6.1-2.9,5.1-16.1-2.4-16.6.6-1.2,2.6-.9,2.4-3,2.7.2,3.7,2.2,7.1,1.8,3.5-4.3-1.3-9.9-4.1-11.8,4.3-6.6-1.9-9.8-4.1-14.8,4,3.1,6.4,7.8,13,8.3-2.4,3.2,2.9,7.8,3.5,11.8,4.1-.8,5.2-4.6,8.3-6.5-.2-5.2-.1-10.5-2.4-13.6-1.3-20-3.9-45.4-2.4-65,.7-8.7,1.1-14.1-4.7-17.1,2.5-2.3,4,1.5,5.9,1.8,1.3-.8.2-4.1.6-5.9,1.6-.2,2.1-1.5,3.5-1.8,4.4.9.7,9.9,3.5,12.4-3.3,8.5-3.2,26-1.2,36.1a16.72,16.72,0,0,1,3.5,2.4c.7,12.1,1.6,24.1,0,37.2a2.71,2.71,0,0,0,2.4,1.2c6.8-8.4,14.5-15.8,18.3-27.2-.9-3.7-5.7-3.4-5.9-7.7,4.5-3.6,5.7,4.4,10.1,4.7,11.1-4.6,15.6-15.9,18.3-29,1.8-.4,2.2.6,3.5.6.8,2.7-1.1,7.4-.6,11.8-13.5,19.2-28.3,37.1-41.4,56.8.4,2.8,2.7,3.6,1.8,7.7.5,1.3,2.1,1.5,3,2.4,1.5,11.5,3.5,22.4,9.5,29.6v3.5c2,2.5,4.4,5.3,2.9,8.9,4,.9,4.2,9.1,6.5,13.6,4.5,0,4.5-4.5,7.1-6.5,1.3.5.5,3,1.8,3.5-4.3,8.8-4.1,19.2-2.4,26.6,4.8,20.3,11.4,43.2,18.9,59.1,5.9,5.4,8.4,14.1,14.8,18.9,2.5.2-1.3,1.8,1.2,3,6.2.1,14.7-6.1,18.9-.6-3.5,1.7-5.4,4.9-8.9,6.5.1,10.6,1.4,19.9,5.3,26.6-2.1,15,3.6,32.2,9.5,43.2,4.2-5.6,6.9-12.8,11.8-17.7-3.3-6.4-11.5-7.8-14.8-14.2,1.2-1.6,4.3-3.7,5.9-3,.1,1.8-1.9,1.7-1.2,4.1,5.4,5.4,14.4,7.3,16.6,16-15.2,1.8-6.1,20.5-10.1,30.7.8,11.4,7.3,17.2,10.1,26.6,2.3.7,3.7,2.2,7.1,1.8,1.1,2.1,2.8,3.5,2.4,7.1,1.8.4,1.7-1,3.5-.6-3.3,20.3,9.8,28.7,21.9,35.5,3-4.6-2.5-8.9-2.4-10.6,4.1-3.1,7.1,4.9,13,2.4,0-4.7-1.4-8.1-1.2-13-7.5-13.3-5.2-33-10.6-47.9-2.1-1.6-5.5-2-7.1-4.1,3-.3,4.9-1.8,8.9-1.2,2.9-7.2,4.4-18.2,3.5-27.2-.9-1.1-2.6-1.4-3.5-2.4,4-1.9,1.5-10.4,3.5-14.2.1-1.1-.6-1.4-1.8-1.2,1.8-9-1.9-13.3-3.5-20.7,2.9-5.4.4-16.4.6-23.1,4.4-6.3,1-15.2-1.8-20.7,6.8-11.7.2-32.2-1.2-43.2,2.9-.8,2.5,1.8,4.7,1.8,2.7-3.4,1.5-10.7,1.8-16.6,4.7-12.1,2.9-27.7,5.3-41.4,1.5-8.1,4.8-15.6,3.5-23.1.8-1,1.2-2.3,3-2.4,1.1-8.4,3.5-15.4,3.5-24.8,4.8-3.2,6-15.4,2.4-20.1,1.9,0,2.3,1.7,4.7,1.2,11.6-16.2,11.9-43.6,11.8-71.5.8-.7,3.4.1,4.7.6-.6,10.4,3.7,17.9.6,29,.5,1.3,3,.5,3.5,1.8-3.8,8.4-2.9,14.7-5.3,26.6-1.5.1-1.8,1.1-3,0,0,2.7-1.2,4.1.6,4.1-.2,1.4-.4,2.8-2.4,2.4-.2,1,1.7,3,0,3.5-.4-.9-.7.1,0,0-2,6.4-7.3,11.2-5.3,18.3-2.1,5.2-5.6,12.3-4.7,18.3a26.38,26.38,0,0,1,1.8,3c-.3,3.7-4.7,5.3-4.1,8.9-.9,2.3,2.6.2,2.4,1.8-.4,2.4-2.8,2.7-3.5,4.7-.4-.9-.7.1,0,0-1.6,9.7-4.1,18.3-5.3,28.4-.9-.1-.5-1.4-.6-2.4-1.5.6-1.9,2.4-1.8,4.7.2,1,.8-.1,1.8,0,1.2,6.1-1.1,14.2.6,20.7,3.2-.2,3.7-.7,5.9.6-.9,3.4-2.9,5.8-2.4,10.6-6.6,10.5-4.5,32.3-4.7,47.3,3.4.2,8.1-3.2,11.2-5.3a23.43,23.43,0,0,0,13-3.5,142.27,142.27,0,0,0,11.8-10.1c7.6-7.1,9.4-13.5,7.1-24.8,1.4-.8,1.8-2.5,3.5-3,1.4-21.6-.8-37.5,1.8-56.8-.3-1.8-3.4-.9-4.7-1.8,1.4-1.2,4.4-.7,5.9-1.8-.3-2.5-1.4-4.1-3.5-4.7.5-1.4,2.6.5,3.5.6,1.2-3.7,4.5-8.5,3.5-13-.6-2.8-3.7-2.8-3.5-5.9,1.5,1,2.7,2.5,4.1,3.5,9.9-14.4-6.4-23.5-16.6-27.2,7.8-2.6,15,5.4,21.3,8.3,2.7-9,.3-22.4,1.2-33.7.5-5.6,1.9-10.1.6-14.8-1.6-5.9-7.1-6.7-8.3-11.8.7-.1.9-.7,1.2-1.2,1.6-1.4,2.9,1,4.7,1.2,2.5-4.5-2.4-6.7-5.9-7.1a18.26,18.26,0,0,0,5.3-3c-.5-9.5-3.6-16.5-7.1-23.1,1.2-1.5,1.8-3.7,4.7-3.5,3.7-3,3.8-9.6,3.5-16.6,1.1,1.8,1.7,1.8,4.1,1.2,1.1,3.4,1.5,5.4,0,10.1-1,3.1-3.5,6-3.5,9.5,0,3,1.1,7.4,1.8,10,1.4,5.7,3.2,15.3,7.1,19.5-4.8,16.6,7.1,21.2,16,26,2.6-1.2,3.4-4.1,6.5-4.7-.1.5.2.6.6.6.1-.5-.2-.6-.6-.6-.4-2.2-1.9.1-4.1-.6-.2-3-2.8-5.2-1.8-7.7,1.8-.8,2.1.3,4.7,0-.4,9.7,11.7,8.5,18.9,8.9.4,7.1-5.8,4-7.7,8.9.8,4.3,3.3,6.9,6.5,8.9,7.5-1.8,10.7-7.8,19.5-8.3a5.56,5.56,0,0,0,2.4-2.4c.1,2.8,2.7,3.2,4.7,4.1-9.7.7-18.8,2.1-20.7,10.6.6,1.2,2.3,1.3,4.1,1.2.8,2.5,1.2,5.5,5.3,4.7,1.8-.9-.5-2.6,0-4.1,2.7.3,4,1.9,5.3,3.5,4.7,0,6.4-3,10.1-4.1.1,3.3-2.6,3.9-4.1,5.5,2.2,3.5,10,4.7,8.9,9.7h3c-1.3,1,.1,4.1.6,5.7,3.1,2.2,7.1,4.5,12.4,2.9-5.4,3.2,5.1,6,7.7,3.5-.6-2.9.8-7.9-2.4-8.3.8-5.9-.3-19.2-1.8-26.6,0-6.5-2-11-6.5-13-7.7-11.8-16-23-23.1-35.5-16.4-11.5-34.2-21.8-45.5-38.4-.7-1.6,2.4-11.8-3.5-10.1.9-1.6,4.5-.7,5.9-1.8,1.5-2.4,2.2-5.7,4.7-7.1-3.3-2.6-8.3-3.5-10.1-7.7-7.2-1.3-12.1-4.9-16.6-8.9-4.4-.7-9.5-.7-10.1-5.3,2.5-.4,2.4,1.9,4.7,1.8,1.2-1.2.6-4.1,2.4-4.7,2.1,0,.5,3.9,1.8,4.7,4.1,1.4,4.9-1.6,7.7-3,2.9,1.2-1.7,1.8-.6,4.7,1.5,1.6,5.1,6.9,6.5,4.7.9.1.5,1.4.6,2.4,4.9-3.7,10-2.5,14.8-7.7,2.2.2,2.4,2.3,5.3,1.8-.7,3.5,1.3,4.2,2.4,5.9-.6,3.4-1,7.9,0,11.2-.3,4-6.1,6.3-7.1,10.1-2.2,8.1,4,14.2,10.1,16.6,1.3-1.2-.2-5.3,2.4-5.3-1,2.2-.5,5.4,0,7.7,4.7,7,12.9,7.6,18.9,12.4,1.7.1,3.9-.3,4.7.6-.6.8-2,.8-2.4,1.8.1,1.1,2,.4,2.4,1.2,4.4-3.7,3.2-12.4,3.5-20.1.3-6.6.2-13.9,0-20.7-.4-14,3.2-32.1-6.5-34.9.8-3,3.8.6,5.9,0,2.1-13.1-4.1-25.6-1.8-39,1.9.1,2.5-1,4.7-.6.1,10.5,1.2,24.2,4.1,33.7,7.5-1.5,12.1-6.1,14.8-12.4,3.6.6,3,5.3,5.3,7.1,2.2-.4,5.9.8,7.1-.6,1.7,1.6-3.7,1-3,3.5-8.6.9-14.8,4.1-20.7,7.7-.1.5,0,1.2-.6,1.2.3,12.3-1.6,21.5-.6,33.1-.1,1.1.6,1.4,1.8,1.2,0,1.8-1.5,2-1.8,3.5,1.7,18.5-4.6,47.2,7.7,56.8C495.9,146.8,498.4,137,507.7,134.2ZM426.2,76.8c1.9.7,3.7,4.6,6.5,2.4-2.5.2.2-1.3,1.2-1.2C434.3,72.4,427.1,72.3,426.2,76.8ZM425,75.1c-.8,0-.8-.8-1.8-.6C422.3,75.9,425.2,76.2,425,75.1Zm-4.8,2.3h1.2V76.2h-1.2Zm-360,82.2c.7,2.3.7-2.3,0,0Zm301.5,8.9c.7,2.3.7-2.4,0,0Zm66.2,10.6c-1,.2-1-.6-1.8-.6-.5.4-1.3,3.3,0,3.5.1-1.1,2-.4,2.4-1.2.2-.9-.5-.9-.6-1.7C429.7,178.4,427.3,176,427.9,179.1ZM400.1,293.8a5.07,5.07,0,0,1-3.5,1.2c-1.4,9.9-1.1,18.1-2.4,28.4,4.2.8,3.5-3.2,5.9-4.1.7.7,2.1.7,3.5.6q-.15-1,.6-1.2c.4.9.7-.1,0,0,2-4.7-.3-9.7-3-13,1-2.9.9-6.4,1.8-6.5-1.4-1.3-.8-4.7-2.9-5.4a40.14,40.14,0,0,1,1.2-6.5c.1.7.6.3.6,0,1.5.1,1-.7,0-.6a2.71,2.71,0,0,1,2.4-1.2c4.1-5,10.8-17.4,17.7-16.6-4.8,9.3-15.4,12.9-16.6,26,1.8,2.2.4,7.8,1.8,11.8,1.4,0,1.7,1,3.5.6-1.9,3.5-.1,7.3.6,11.2-1.8,2.8-7,6.3-4.7,9.5-.4.8-2.3.1-2.4,1.2.9,3.4,2.1,6.5,2.4,12.4,4,3.2,7.9-.8,11.2-1.8-.2,1.4,2.7-.3,1.8,1.8-6.1-1.1-5.1,6.5-11.2,3.5,1.4,8.4,11,8.7,17.1,12.4,18.5-12.7,33.9-28.3,44.3-49.1-1.6-2.5-5.6-2.6-5.3-7.1,2.6,1.7,4.1,4.5,7.7,5.3,2.6-1.2,2.6-4.5,4.1-7.1,5.3-8.8,12.5-20.8,17.1-31.9,9.3-22.1-9-28-20.1-39.6-19.3-6.7-28-24-42.6-35.5-3.7.1-5.3-1.8-8.9-1.8-2.7-6.2-9.2-8.6-15.4-11.2.7,4.8-5.6,14.8-.6,20.1-3.3,6.8.9,19.1-1.8,25.4,1.8.8,3.3-1.8,4.1,0-6.2,4.4-7.8,13.5-8.9,23.1,3.3.6,5.8-1.6,6.5,1.2-5.2,2.6-12.9,9.1-7.7,16.6-5.6,4.2-4.1,16.8-3.5,25.4C396.5,292.4,398,293.4,400.1,293.8Zm28.4-112.3c.8,3,.8,1.1,0,4.1,2.2-.2,3.5.5,3.5,2.4,2.3-.9.7-.9,3,0a3.59,3.59,0,0,1,.6-2.4c-.8-.6-2.2-.6-2.4-1.8.6-.6,2.2-.2,1.8-1.8C433.7,179.8,431.2,181.8,428.5,181.5ZM163.1,244.7c-1.7.5-1.5-.8-3-.6-.7,2.6-3.2,3.5-3.5,6.5,4.3,7.9,9.6,14.8,11.8,24.8,2.1,1.2,4.3,2.4,6.5,3.5-.2,1.1-2.3.5-1.8,2.4,5.5,4.2,7.3,12,14.8,14.2-2.9-24.7-16.3-38.8-20.7-62.1C164.1,235.6,159.2,241,163.1,244.7Zm179.1,4.2c.4.4-.2-.3,0,0ZM161.9,276.7c-.1-5.4-2.5-8.5-5.9-10.6C156.6,270.9,159.3,273.7,161.9,276.7ZM179,323.1c2.5,1.8,4.4,4.4,8.3,4.9.5-3.3,1.9-3,5.3-2.6-5.3-17.5-17.5-27.4-25.4-43.4h-1.8C167.6,296,176.2,308.2,179,323.1Zm156.1-34.6c.7,2.3.7-2.3,0,0Zm65.6,40.8c-.4-1.6,2.8.4,2.4-1.2-3.6,0-1.6-2.5-1.8-5.3-2.4-.2-4.6,3.1-5.3,4.7-3.5,7.5-4.3,18.1-8.9,24.8-10.6,13-25.5,21.8-39.6,31.3-2,8.2-4.3,21.4-1.8,31.9,3.6-.7,8.5.4,13,1.8-.1-2.3,1.7-2.6,3.5-3-.5,1.9.5,2.2,1.2,3,5.4-.2,7.9-1.4,12.4-4.7,6.1-4.5,14-11.4,16.6-15.4-.3.4-1.3-.4-1.2-.6.4-1.1,2.3-1.1,2.4-1.8s-1.2-8.2-2.4-8.9c2.8-1.2,1.3-3.1,0-4.7a3.88,3.88,0,0,0,3-.6c1.7-12.1,3.7-22,5.3-33.1-.8,0-1.7.1-1.8-.6C400.8,343,399.3,333.6,400.7,329.3Zm-208.1,16c5.7-7-2.5-13.6-8.3-14.8C186.6,335.9,186.9,343.3,192.6,345.3Zm217.6,7.6c1.5,2.3.9-1.9,0,0Zm-211.7,3.6c-.1-1,.6-3-1.2-2.4C197.2,355.5,197.5,356.3,198.5,356.5Zm211.1,0c.4.4-.2-.3,0,0Zm10,10.6c.9-1.9,2.6-2.9,3-5.3-2.1-.2-2.5-2.3-4.7-2.4-1.7,1,.9,3-.6,3.5-1.7-2.1-1.5-6-5.9-5.3C409.2,365.8,414.7,366.1,419.6,367.1Zm-10-2.3c.4.4-.2-.3,0,0Zm2.4,4.7c.3,4.6-2.1,6.6-2.4,10.6,3.4-3.1,7.1-6,8.3-11.2C416.3,367.6,413.1,368.5,412,369.5Zm-62.1,50.3c.4.3-.3-.3,0,0Zm2.3,5.9c.4.4-.2-.3,0,0ZM607.7,431c-.5.1-1.2,0-1.2.6C606.9,431.4,607.6,431.6,607.7,431ZM389.5,443.4c1.8,4.7,7.1,2,8.9,1.2-1.9-1.2-2.8-3.5-5.3-4.1A4.69,4.69,0,0,1,389.5,443.4Zm33.1.6c.2,2,.9,3.4.6,5.9,3.1-.2,3.1-6.7,3-8.3C425.2,442.6,424.7,444.1,422.6,444Zm-11.8,4.7c1.2,3.4-.6,9.7,1.8,11.8,3.1-3.8,6.2-7.6,10.1-10.6C422,441.4,416,448.7,410.8,448.7Zm-25.4-2.3c-4.4,7.4-11.7,8.8-16.6,16-10.3,15.3-1.4,33.6,0,49.7.7,8.6-1,19.4,0,24.8.4,2.2,2.6,4.3,3,6.5.5,2.8-.5,5.4-.6,8.3-1.2,25.4,1.2,48.4,7.1,66.8,5.5-4.2,9.6-9.7,16-13,4.5-6.7,2.2-13.1,3.5-21.3,1.8-10.7,12.3-19.5,18.3-25.4,2.7-2.7,5.2-5.7,4.1-11.2-10.2-18.5-22.2-38-21.9-65-3.3-7.1-11.8-9.1-13-18.3,3.1.3,6.2.5,8.3.6,1.3-4.5-2.3-7.5-1.2-13.6C389.9,449.7,389.1,446.6,385.4,446.4ZM430.9,522a6.6,6.6,0,0,0,1.2,4.7,6.11,6.11,0,0,0,4.1-5.3C434.4,521.6,431.9,521,430.9,522ZM330,551c-1,.9-1.3,1.3-2.8,1.2.6,2.5,1.2,5,4,5.3-.1-2.8-.3-5.6-1.3-7.7A4.87,4.87,0,0,1,330,551Zm55.4,150.8c.6,2.3.6-2.4,0,0Zm-.6,2.9H386v-1.2h-1.2Zm-3.8,4.2c1,.7,2.4.7,1.9,3,1.6-.1,3.3-3.2,2-4.1-2,3.5-2.9-3.1-3.9-3Zm-57.1,7.6c-.7,3.5,2.5.3,0,0Zm49.6,3c-.6,3.4,2.6.3,0,0ZM312,737.8c.1.7,1.2.6,1.2,0,1.9-1.8,5-2.5,7.1-4.1.8.4.1,2.3,1.2,2.4-.2-3.2,4.4-1.6,4.1-4.7-2.7-2.9,1.6-5.3,1.8-8.9-2.5-1.8-7.7,2.2-4.7,4.1-.2-1.6,1.2-1.5,2.4-1.8-.8,1-.5,3-1.8,3.5-1.3-2.1-5.4,2-5.9-1.2,1.5.1,2.6.1,3.6-.6v-1.6h-4.8c-2.6,4-9,6.4-9.5,13.8C308.5,739.7,310.3,738.5,312,737.8Zm79.3-7.5c.2-2.4-1.4-3.3-1.2-5.3h-1.8C388.5,727,389.5,729.3,391.3,730.3Zm-110-4.3c.7,2.3.7-2.3,0,0Zm63.9,11.8c-4.3.6-4.6,5.2-8.3,6.5,2.3-.8,1.2,1.9,3.5,1.2.7-.7,1.1-1.7,3-1.2.8-1.5-2.3-1.4-.6-2.4H345v1.7c2,0,3.6.3,3.6-1.2-1.2-1.2-1.1.3-2.3.6.1-1.5-.9-1.8-1.2-3,2.1-.9,4.2-2.8,3-5.3,2.9-.3,1.2-3.6,4.1-1.8-.4-3.6,5.4-4.1,3-7.7C352,729.7,347.3,732.5,345.2,737.8Zm-65.7-9.4c.7,2.3.7-2.4,0,0Zm84,0c-.5,3.5.3-2.4,0,0Zm23.6.6c-.5.1-1.2,0-1.2.6C386.4,729.4,387.1,729.5,387.1,729Zm-7.1,3.5c.7,1.8,3.2-.6,0,0C379.7,731.7,379.3,732.6,380,732.5Zm.6,10.1c1.1-2.9,6.5-1.4,6.5-5.3-.3-1.4-1.4-2.2-2.4-3-1,1.9,2.2,2.4.6,3-2.3.1-1.1-3.3-3.5-3-.3,1,.7,3.5-.6,3.5-4,1.2-.8-4.7-4.1-4.1C378.1,738,376.9,741,380.6,742.6Zm-7.6-4.8c2,.9,2-2.6,0-1.8Zm-39.7,4.8q.15-.75,1.2-.6c-3-1.7,2-4.2-1.2-5.3C333,737.9,331.9,741.5,333.3,742.6Zm-15.9-4.2c0,2.3,3.2,1.5,4.7,2.4A3.15,3.15,0,0,0,317.4,738.4Zm57.3,1.2c-2.4.4-2-1.9-4.7-1.2C370.3,740.1,373.9,742.1,374.7,739.6ZM328,742c-.2-1.1,3-2.7,0-3C328.4,740.1,326.3,741.5,328,742Zm12.4-1.8c-3.1-.6-.7,1.8,0,0C341.3,739.8,340.4,739.5,340.4,740.2Zm-56.1,5.3a2.86,2.86,0,0,0,2.4-2.4Q283.85,742.8,284.3,745.5Zm79.2-1.2h1.2v-1.2h-1.2Zm-30.8,1.2c1.7-3-2.8-1.4,0,0ZM286.6,748h-1.8C282.5,752,287.5,753,286.6,748Zm-10,4.1c0,.8.3.9.6,1.9h1.2a2.74,2.74,0,0,1,.6-1.8C277.8,751.2,278.2,752.2,276.6,752.1Zm8.2,3.5c0-.4.1-.7.6-.6-.1-.7-.2-1.4-1.2-1.2C284.4,754.5,284.2,755.5,284.8,755.6Zm1.2,2.9c-2-.6-1.6,1.5-1.7,2.5h2.4c.7-2-1.6-.5-.9-2.4,2.4.6,2.3-3.6.3-3A28.1,28.1,0,0,0,286,758.5Zm26,2.4c.4-1.2,3-.2,2.4-2.4C312.4,757.7,310.3,759.8,312,760.9Zm-24.8,1.8h1.2v-1.2h-1.2Zm53.8,0c.4.4-.2-.3,0,0Zm-72.1,4.1c-.4-1.3,1.1-4.6-1.2-4.1C267.8,764.3,267.2,766.7,268.9,766.8ZM299,768c.4.4-.2-.3,0,0Zm-27.2,11.2c1.5,2.3.9-1.9,0,0Z" transform="translate(-22.97)"/><path class="cls-1" d="M433.8,78c-1-.2-3.7,1.3-1.2,1.2-2.8,2.2-4.6-1.7-6.5-2.4C427.1,72.3,434.3,72.4,433.8,78Z" transform="translate(-22.97)"/><path class="cls-1" d="M423.2,74.5c1-.2,1,.6,1.8.6C425.2,76.2,422.3,75.9,423.2,74.5Z" transform="translate(-22.97)"/><path class="cls-1" d="M420.2,76.2h1.2v1.2h-1.2Z" transform="translate(-22.97)"/><path class="cls-2" d="M419.1,95.2c-.7,1.8-3.2-.7,0,0Z" transform="translate(-22.97)"/><path class="cls-2" d="M444.5,107c.1-1.8,2.4.6,0,0Z" transform="translate(-22.97)"/><path class="cls-2" d="M443.9,107.6c0-.4.1-.7.6-.6C444.4,107.4,444.4,107.7,443.9,107.6Z" transform="translate(-22.97)"/><path class="cls-2" d="M509.5,133c0-.7.9-.4,0,0Z" transform="translate(-22.97)"/><path class="cls-2" d="M508.3,133.6q.15-.75,1.2-.6Q509.35,133.75,508.3,133.6Z" transform="translate(-22.97)"/><path class="cls-2" d="M507.7,134.2c0-.4.1-.7.6-.6C508.3,134,508.2,134.3,507.7,134.2Z" transform="translate(-22.97)"/><path class="cls-1" d="M600.6,133.6c-1.5,2.5-8.3,5.2-10.1,3.5C591.7,133.8,597.2,134.8,600.6,133.6Z" transform="translate(-22.97)"/><path class="cls-1" d="M60.2,159.6c.7-2.3.7,2.3,0,0Z" transform="translate(-22.97)"/><path class="cls-1" d="M361.7,168.5c.7-2.4.7,2.3,0,0Z" transform="translate(-22.97)"/><path class="cls-1" d="M426.2,176.2c.4,0,.7.1.6.6C426.4,176.7,426,176.7,426.2,176.2Z" transform="translate(-22.97)"/><path class="cls-1" d="M427.9,179.1c-.6-3.1,1.8-.7,0,0Z" transform="translate(-22.97)"/><path class="cls-1" d="M427.9,179.1c0,.8.8.8.6,1.8-.4.8-2.3.1-2.4,1.2-1.3-.2-.5-3.1,0-3.5C426.9,178.6,427,179.3,427.9,179.1Z" transform="translate(-22.97)"/><path class="cls-1" d="M410.8,307.4c.5.1.6-.2.6-.6.9-.4-.1-.7,0,0-.5-.1-.6.3-.6.6-1.8.4-2.2-.6-3.5-.6-1.3-4,0-9.6-1.8-11.8,1.1-13.1,11.7-16.7,16.6-26-7-.8-13.6,11.5-17.7,16.6a2.71,2.71,0,0,0-2.4,1.2c-.5-.1-.6.2-.6.6a40.14,40.14,0,0,0-1.2,6.5,17.16,17.16,0,0,1-5.3-2.4c-.5-8.6-2.1-21.3,3.5-25.4-5.2-7.4,2.5-13.9,7.7-16.6-.7-2.8-3.2-.6-6.5-1.2,1.1-9.6,2.6-18.6,8.9-23.1-.9-1.8-2.3.8-4.1,0,2.6-6.3-1.5-18.7,1.8-25.4-5-5.3,1.3-15.3.6-20.1,6.2,2.7,12.7,5.1,15.4,11.2,3.6,0,5.2,1.9,8.9,1.8,14.6,11.4,23.2,28.8,42.6,35.5,11.1,11.6,29.4,17.5,20.1,39.6-4.7,11.1-11.8,23.1-17.1,31.9-1.6,2.6-1.5,5.9-4.1,7.1-3.5-.8-5.1-3.6-7.7-5.3-.3,4.4,3.7,4.6,5.3,7.1-10.4,20.7-25.9,36.4-44.3,49.1-6.1-3.7-15.7-4-17.1-12.4,6.1,2.9,5.2-4.7,11.2-3.5.9-2.1-2-.4-1.8-1.8-3.3,1-7.3,5-11.2,1.8-.2-5.9-1.4-9-2.4-12.4.1-1.1,2-.4,2.4-1.2-2.3-3.2,2.9-6.7,4.7-9.5C410.6,314.7,408.9,310.9,410.8,307.4Z" transform="translate(-22.97)"/><path class="cls-1" d="M435,182.1c.4,1.6-1.2,1.1-1.8,1.8.2,1.2,1.6,1.2,2.4,1.8a3.29,3.29,0,0,0-.6,2.4c-2.3-.9-.7-.9-3,0-.1-1.9-1.3-2.6-3.5-2.4.8-3,.8-1.1,0-4.1C431.2,181.8,433.7,179.8,435,182.1Z" transform="translate(-22.97)"/><path class="cls-2" d="M358.2,190.9c-.3-.2.3.4,0,0Z" transform="translate(-22.97)"/><path class="cls-2" d="M479.4,197.5a3.22,3.22,0,0,1,.6-1.8C481.1,195.4,480.8,198.4,479.4,197.5Z" transform="translate(-22.97)"/><path class="cls-2" d="M481.1,196.3c.1-.7,1.1-.5,1.8-.6C482.8,196.4,481.8,196.2,481.1,196.3Z" transform="translate(-22.97)"/><path class="cls-2" d="M479.4,197.5c-.2,1.7-2.5-.6,0,0Z" transform="translate(-22.97)"/><path class="cls-1" d="M355.8,198.6c-.7.1-.4-.8,0,0Z" transform="translate(-22.97)"/><path class="cls-2" d="M475.8,198.6c.7-1.8,3.2.7,0,0Z" transform="translate(-22.97)"/><path class="cls-2" d="M475.8,198.6c-.1,1-1,1.3-2.4,1.2A2.71,2.71,0,0,1,475.8,198.6Z" transform="translate(-22.97)"/><path class="cls-2" d="M154.2,218.7c-.3-.2.4.4,0,0Z" transform="translate(-22.97)"/><path class="cls-2" d="M496.5,221.7c1.6.5-.3,2.4-1.8,1.8C494.6,222.1,496.4,222.8,496.5,221.7Z" transform="translate(-22.97)"/><path class="cls-1" d="M163.1,244.7c-.2,1,.5,1.1,1.2,1.2.2-1-.5-1.1-1.2-1.2-3.9-3.7,1-9.1,4.1-11.2,4.4,23.2,17.8,37.4,20.7,62.1-7.4-2.2-9.3-10-14.8-14.2-.5-1.9,1.5-1.2,1.8-2.4-2.2-1.1-4.4-2.3-6.5-3.5-2.2-10-7.5-16.9-11.8-24.8.3-3,2.8-3.9,3.5-6.5C161.5,243.9,161.4,245.2,163.1,244.7Z" transform="translate(-22.97)"/><path class="cls-2" d="M163.1,244.7c.7.1,1.4.2,1.2,1.2C163.5,245.9,162.8,245.8,163.1,244.7Z" transform="translate(-22.97)"/><path class="cls-1" d="M342.2,248.9c-.2-.3.4.4,0,0Z" transform="translate(-22.97)"/><path class="cls-1" d="M342.2,253.6c-.7.1-.4-.8,0,0Z" transform="translate(-22.97)"/><path class="cls-1" d="M156,266a11.83,11.83,0,0,1,5.9,10.6C159.3,273.7,156.6,270.9,156,266Z" transform="translate(-22.97)"/><path class="cls-1" d="M165.4,282h1.8c7.9,16,20.1,25.9,25.4,43.5-3.4-.4-4.8-.8-5.3,2.5-3.9-.4-5.8-3.1-8.3-4.9C176.2,308.1,167.6,296,165.4,282Z" transform="translate(-22.97)"/><path class="cls-2" d="M401.3,287.3c0-.4.1-.7.6-.6v.6Z" transform="translate(-22.97)"/><path class="cls-1" d="M402,287.3v-.6C403,286.6,404,287.4,402,287.3Z" transform="translate(-22.97)"/><path class="cls-1" d="M401.3,288h.6S401.4,289,401.3,288Z" transform="translate(-22.97)"/><path class="cls-1" d="M335.1,288.5c.7-2.3.7,2.3,0,0Z" transform="translate(-22.97)"/><path class="cls-1" d="M400.1,293.8c2,.7,1.4,4.1,3,5.3-.9.1-.8,3.6-1.8,6.5,2.6,3.3,4.9,8.3,3,13q-.75.15-.6,1.2c-1.5.1-2.8.1-3.5-.6-2.4.9-1.7,5-5.9,4.1,1.3-10.2,1-18.5,2.4-28.4C398.1,294.9,399.4,294.7,400.1,293.8Z" transform="translate(-22.97)"/><path class="cls-2" d="M411.4,306.8c-.1-.7.8-.3,0,0Z" transform="translate(-22.97)"/><path class="cls-2" d="M410.8,307.4c0-.4.1-.7.6-.6C411.3,307.2,411.3,307.5,410.8,307.4Z" transform="translate(-22.97)"/><path class="cls-1" d="M404.3,318.7c.7-.1.3.8,0,0Z" transform="translate(-22.97)"/><path class="cls-1" d="M400.7,329.3c-1.7.1.6,2.4,0,0-1.5,4.3,0,13.7-3,17.7.1.7.9.6,1.8.6-1.6,11.1-3.6,21-5.3,33.1a3.88,3.88,0,0,1-3,.6c1.3,1.6,2.8,3.5,0,4.7,1.2.7,2.5,8.3,2.4,8.9s-2,.7-2.4,1.8c-.1.2.9,1,1.2.6-2.6,3.9-10.4,10.9-16.6,15.4-4.5,3.3-7,4.5-12.4,4.7-.7-.7-1.7-1.1-1.2-3-1.8.3-3.6.7-3.5,3-4.5-1.4-9.4-2.5-13-1.8-2.5-10.5-.2-23.7,1.8-31.9,14.1-9.5,29-18.3,39.6-31.3,4.6-6.8,5.4-17.3,8.9-24.8.8-1.7,2.9-4.9,5.3-4.7.2,2.8-1.9,5.3,1.8,5.3C403.5,329.7,400.3,327.7,400.7,329.3Z" transform="translate(-22.97)"/><path class="cls-2" d="M400.7,329.3c.6,2.4-1.7.1,0,0Z" transform="translate(-22.97)"/><path class="cls-1" d="M184.3,330.5c5.8,1.2,14,7.8,8.3,14.8C186.9,343.3,186.6,335.9,184.3,330.5Z" transform="translate(-22.97)"/><path class="cls-1" d="M410.2,352.9c.9-1.9,1.5,2.3,0,0Z" transform="translate(-22.97)"/><path class="cls-1" d="M197.3,354.1c1.8-.6,1,1.3,1.2,2.4C197.5,356.3,197.2,355.5,197.3,354.1Z" transform="translate(-22.97)"/><path class="cls-1" d="M409.6,356.5c-.2-.3.4.4,0,0Z" transform="translate(-22.97)"/><path class="cls-1" d="M411.4,357.7c4.4-.7,4.2,3.3,5.9,5.3,1.5-.5-1.1-2.6.6-3.5,2.3.1,2.6,2.1,4.7,2.4-.3,2.4-2.1,3.5-3,5.3C414.7,366.1,409.2,365.8,411.4,357.7Z" transform="translate(-22.97)"/><path class="cls-1" d="M409.6,364.8c-.2-.3.4.4,0,0Z" transform="translate(-22.97)"/><path class="cls-1" d="M417.9,368.9c-1.2,5.3-4.9,8.1-8.3,11.2.3-4.1,2.7-6,2.4-10.6C413.1,368.5,416.3,367.6,417.9,368.9Z" transform="translate(-22.97)"/><path class="cls-2" d="M515.4,413.8c.1-.7,1.2-.6,1.2,0C516.3,414.7,516.1,413.8,515.4,413.8Z" transform="translate(-22.97)"/><path class="cls-1" d="M349.9,419.8c-.3-.3.4.3,0,0Z" transform="translate(-22.97)"/><path class="cls-2" d="M216.3,419.8c0,.7-.9.3,0,0Z" transform="translate(-22.97)"/><path class="cls-1" d="M352.2,425.7c-.2-.3.4.4,0,0Z" transform="translate(-22.97)"/><path class="cls-1" d="M606.5,431.6c0-.6.7-.5,1.2-.6C607.6,431.6,606.9,431.4,606.5,431.6Z" transform="translate(-22.97)"/><path class="cls-2" d="M269.5,433.4c.1-1.8,2.4.5,0,0Z" transform="translate(-22.97)"/><path class="cls-1" d="M393,440.4c2.5.6,3.4,2.9,5.3,4.1-1.8.8-7,3.6-8.9-1.2A4.09,4.09,0,0,0,393,440.4Z" transform="translate(-22.97)"/><path class="cls-1" d="M426.2,441.6c.1,1.5.2,8-3,8.3.3-2.5-.4-3.9-.6-5.9C424.7,444.1,425.2,442.6,426.2,441.6Z" transform="translate(-22.97)"/><path class="cls-1" d="M422.6,449.9c-3.8,3.1-6.9,6.9-10.1,10.6-2.4-2.2-.6-8.5-1.8-11.8C416,448.7,422,441.4,422.6,449.9Z" transform="translate(-22.97)"/><path class="cls-1" d="M392.5,451.1c-1.1,6.1,2.5,9.1,1.2,13.6-2-.1-5.1-.3-8.3-.6,1.2,9.2,9.7,11.2,13,18.3-.3,27,11.7,46.6,21.9,65,1.1,5.5-1.4,8.6-4.1,11.2-6.1,6-16.5,14.7-18.3,25.4-1.4,8.2.9,14.5-3.5,21.3-6.3,3.3-10.5,8.8-16,13-5.9-18.4-8.3-41.4-7.1-66.8.1-2.9,1.1-5.5.6-8.3-.4-2.2-2.5-4.3-3-6.5-1-5.5.7-16.2,0-24.8-1.4-16-10.3-34.3,0-49.7,4.8-7.2,12.2-8.5,16.6-16C389.1,446.6,389.9,449.7,392.5,451.1Z" transform="translate(-22.97)"/><path class="cls-2" d="M621.3,464.7c-1.3,1.8-3.8-.7,0,0Z" transform="translate(-22.97)"/><path class="cls-1" d="M436.2,521.4a6.11,6.11,0,0,1-4.1,5.3,6.6,6.6,0,0,1-1.2-4.7C431.9,521,434.4,521.6,436.2,521.4Z" transform="translate(-22.97)"/><path class="cls-1" d="M330,549.8a20,20,0,0,1,1.4,7.7c-2.9-.3-3.6-2.8-4.2-5.3,1.5.1,1.9-.3,2.9-1.2A4.87,4.87,0,0,1,330,549.8Z" transform="translate(-22.97)"/><path class="cls-2" d="M280.1,588.8c0-.6.7-.5,1.2-.6C281.3,588.8,280.6,588.7,280.1,588.8Z" transform="translate(-22.97)"/><path class="cls-2" d="M743.6,595.3Z" transform="translate(-22.97)"/><path class="cls-1" d="M440.9,614.3c-.1.5,0,1.2-.6,1.2C440.5,615,440.4,614.3,440.9,614.3Z" transform="translate(-22.97)"/><path class="cls-2" d="M443.9,616c-.3-.2.4.4,0,0Z" transform="translate(-22.97)"/><path class="cls-2" d="M481.1,619c-.2-.3.4.4,0,0Z" transform="translate(-22.97)"/><path class="cls-2" d="M293.7,641.5c-.2-.3.4.4,0,0Z" transform="translate(-22.97)"/><path class="cls-2" d="M301.4,653.9c.1-1.8,2.5.5,0,0Z" transform="translate(-22.97)"/><path class="cls-1" d="M385.4,701.8c.6-2.4.6,2.3,0,0Z" transform="translate(-22.97)"/><path class="cls-1" d="M384.8,703.5H386v1.2h-1.2Z" transform="translate(-22.97)"/><path class="cls-1" d="M381,704.7c1-.1,1.7,6.4,3.7,3,1.3,1,0,4.1-1.5,4.1.5-2.3-1.1-2.3-2.1-3C381,707.5,381,706.1,381,704.7Z" transform="translate(-22.97)"/><path class="cls-2" d="M267.1,712.4c-.7.1-.4-.8,0,0Z" transform="translate(-22.97)"/><path class="cls-1" d="M323.9,716.5c2.5.3-.7,3.5,0,0Z" transform="translate(-22.97)"/><path class="cls-1" d="M373.5,719.5c2.6.3-.6,3.4,0,0Z" transform="translate(-22.97)"/><path class="cls-1" d="M313.2,737.8c-.1-.7-1.2-.6-1.2,0-1.8.7-3.5,1.8-5.3,1,.5-7.4,6.9-9.8,9.5-13.8H321v1.6c-1,.7-2.1.7-3.6.6.4,3.2,4.6-.9,5.9,1.2,1.3-.5.9-2.6,1.8-3.5-1.1.2-2.6.2-2.4,1.8-3-1.9,2.2-6,4.7-4.1-.1,3.6-4.5,6-1.8,8.9.2,3.2-4.4,1.6-4.1,4.7-1.1-.1-.4-2-1.2-2.4C318.3,735.4,315.2,736,313.2,737.8Zm5.3-7.1c1.5.2,2.5-.2,2.4-1.8C319.4,728.8,318.4,729.2,318.5,730.7Z" transform="translate(-22.97)"/><path class="cls-1" d="M388.3,725h1.8c-.2,2,1.4,3,1.2,5.3C389.5,729.3,388.5,727,388.3,725Z" transform="translate(-22.97)"/><path class="cls-1" d="M281.3,726c.7-2.3.7,2.3,0,0Z" transform="translate(-22.97)"/><path class="cls-1" d="M355.2,725.4c2.4,3.6-3.4,4.1-3,7.7-3-1.9-1.2,1.5-4.1,1.8,1.3,2.5-.9,4.5-3,5.3.3,1.1,1.3,1.5,1.2,3,1.2-.3,1.1-1.8,2.3-.6-.1,1.5-1.6,1.2-3.6,1.2v-1.7h-2.2c-1.7,1,1.4.9.6,2.4-1.9-.5-2.2.5-3,1.2-2.3.8-1.2-2-3.5-1.2,3.7-1.3,4-5.9,8.3-6.5C347.3,732.5,352,729.7,355.2,725.4Z" transform="translate(-22.97)"/><path class="cls-2" d="M398.4,727.2c.6-2.3.6,2.3,0,0Z" transform="translate(-22.97)"/><path class="cls-1" d="M279.5,728.4c.7-2.4.7,2.3,0,0Z" transform="translate(-22.97)"/><path class="cls-1" d="M363.5,728.4c.3-2.4-.5,3.5,0,0Z" transform="translate(-22.97)"/><path class="cls-2" d="M400.1,729.6c-1.7-.2.6-2.5,0,0Z" transform="translate(-22.97)"/><path class="cls-2" d="M320.9,729c.2,1.6-.8,1.9-2.4,1.8C318.4,729.2,319.4,728.8,320.9,729Z" transform="translate(-22.97)"/><path class="cls-1" d="M385.9,729.6c0-.6.7-.5,1.2-.6C387.1,729.5,386.4,729.4,385.9,729.6Z" transform="translate(-22.97)"/><path class="cls-1" d="M380,732.5c-.7.1-.3-.8,0,0Z" transform="translate(-22.97)"/><path class="cls-1" d="M380,732.5c3.2-.6.7,1.8,0,0Z" transform="translate(-22.97)"/><path class="cls-1" d="M377.1,733.7c3.3-.6.2,5.3,4.1,4.1,1.3-.1.3-2.5.6-3.5,2.5-.3,1.2,3.1,3.5,3,1.6-.5-1.6-1.1-.6-3a5.6,5.6,0,0,1,2.4,3c0,3.9-5.4,2.4-6.5,5.3C376.9,741,378.1,738,377.1,733.7Z" transform="translate(-22.97)"/><path class="cls-1" d="M397.8,734.3c-.5-.1-1.2,0-1.2-.6C397,733.8,397.8,733.7,397.8,734.3Z" transform="translate(-22.97)"/><path class="cls-1" d="M373,736.1c2-.9,2,2.6,0,1.8Z" transform="translate(-22.97)"/><path class="cls-1" d="M333.3,736.7c3.2,1.1-1.8,3.6,1.2,5.3q-1-.15-1.2.6C331.9,741.5,333,737.9,333.3,736.7Z" transform="translate(-22.97)"/><path class="cls-2" d="M312,738h0Z" transform="translate(-22.97)"/><path class="cls-1" d="M312,738h0Z" transform="translate(-22.97)"/><path class="cls-1" d="M322.1,740.8c-1.5-.8-4.7,0-4.7-2.4A3.15,3.15,0,0,1,322.1,740.8Z" transform="translate(-22.97)"/><path class="cls-1" d="M370,738.4c2.7-.7,2.3,1.6,4.7,1.2C373.9,742.1,370.3,740.1,370,738.4Z" transform="translate(-22.97)"/><path class="cls-1" d="M328,739c3,.2-.2,1.8,0,3C326.3,741.5,328.4,740.1,328,739Z" transform="translate(-22.97)"/><path class="cls-1" d="M340.4,740.2c0-.7.9-.4,0,0Z" transform="translate(-22.97)"/><path class="cls-1" d="M340.4,740.2c-.7,1.8-3.1-.6,0,0Z" transform="translate(-22.97)"/><path class="cls-2" d="M397.8,742.6c-.1,1.7-2.5-.6,0,0Z" transform="translate(-22.97)"/><path class="cls-1" d="M286.6,743.2a2.86,2.86,0,0,1-2.4,2.4Q283.9,742.75,286.6,743.2Z" transform="translate(-22.97)"/><path class="cls-1" d="M363.5,743.2h1.2v1.2h-1.2Z" transform="translate(-22.97)"/><path class="cls-1" d="M332.7,745.5c-2.8-1.4,1.7-3,0,0Z" transform="translate(-22.97)"/><path class="cls-1" d="M376.5,746.1c-2.1,1.1-3.4-1.6-1.8-2.4C373.8,746.1,376.3,745,376.5,746.1Z" transform="translate(-22.97)"/><path class="cls-2" d="M397,744.3c2-.9,2,2.6,0,1.8Z" transform="translate(-22.97)"/><path class="cls-2" d="M391.3,746.7c.7.1,1.4.2,1.2,1.2h-1.2Z" transform="translate(-22.97)"/><path class="cls-2" d="M394.2,746.7c1.3.5-.1,3.7,2.4,3,.1,1.8-.7,2.8-1.2,4.1C393.9,751.9,392.4,748.6,394.2,746.7Z" transform="translate(-22.97)"/><path class="cls-2" d="M398.4,747.9Z" transform="translate(-22.97)"/><path class="cls-2" d="M363.5,749.1c0-.6.7-.5,1.2-.6C364.6,749.1,363.9,748.9,363.5,749.1Z" transform="translate(-22.97)"/><path class="cls-2" d="M365.8,749.1c-.2-.3.4.4,0,0Z" transform="translate(-22.97)"/><path class="cls-1" d="M284.8,748h1.8C287.5,753,282.5,752,284.8,748Z" transform="translate(-22.97)"/><path class="cls-2" d="M364.7,749.7c2,1,2.5,2.2,5.3,1.2-1.2,2.4-3.3,3.8-5.3,5.3.3,2,4.4.3,5.3,1.8-.7,2.4-6.9,1.9-8.3,1.8C361.3,755,363,752.3,364.7,749.7Z" transform="translate(-22.97)"/><path class="cls-1" d="M278.9,752.1a3.05,3.05,0,0,0-.6,1.9h-1.2c-.3-1-.6-1-.6-1.8C278.2,752.2,277.8,751.1,278.9,752.1Z" transform="translate(-22.97)"/><path class="cls-1" d="M284.3,753.8c1-.2,1.1.5,1.2,1.2-.5-.1-.6.2-.6.6C284.2,755.5,284.4,754.5,284.3,753.8Z" transform="translate(-22.97)"/><path class="cls-1" d="M286,758.5v-3C288,755,288,759.1,286,758.5Z" transform="translate(-22.97)"/><path class="cls-1" d="M285.4,758.6c-.7,1.9,1.9.4,1.2,2.4h-2.4C284.4,760,283.7,758,285.4,758.6Z" transform="translate(-22.97)"/><path class="cls-1" d="M314.4,758.5c.6,2.2-2,1.2-2.4,2.4C310.3,759.8,312.4,757.7,314.4,758.5Z" transform="translate(-22.97)"/><path class="cls-2" d="M371.2,759.1c-.3-.2.4.4,0,0Z" transform="translate(-22.97)"/><path class="cls-2" d="M328,761.5c0-.6.7-.5,1.2-.6C329.2,761.5,328.5,761.3,328,761.5Z" transform="translate(-22.97)"/><path class="cls-1" d="M283,772.1v-1.2c-3-3.1-4.6-3.1-8.2-4.7,1.3-.5,1.3-2.2,3-2.4.3,1.4,1.4,2.2,2.4,3,.9-2,.9-5,3.5-5.3C282.4,765.8,283,769,283,772.1Z" transform="translate(-22.97)"/><path class="cls-1" d="M287.2,761.5h1.2v1.2h-1.2Z" transform="translate(-22.97)"/><path class="cls-1" d="M341,762.7c-.2-.3.4.4,0,0Z" transform="translate(-22.97)"/><path class="cls-1" d="M267.7,762.7c2.2-.5.8,2.8,1.2,4.1C267.2,766.7,267.8,764.3,267.7,762.7Z" transform="translate(-22.97)"/><path class="cls-2" d="M336.3,767.7c-1.9,2-1,4.3,0,7.3h-3c2.7-3-1.8-2.9-1.8-.3-1.6-1.3-2.7-3.3-5.9-3.1-.2,1,.5,1.1,1.2,1.1-1.2,1.9-3.1-.5-4.1-.6-.1-1.9,2.3-1.5,3.1-2.4-.5-1.7-1.8.3-2.8,0v-3.8h3.8c1,0-.5,2.1,0,4.2,1.6.2.5-2.1,2.4-1.6C326.7,764.5,332.8,767,336.3,767.7Z" transform="translate(-22.97)"/><path class="cls-1" d="M299,768c-.2-.3.4.4,0,0Z" transform="translate(-22.97)"/><path class="cls-1" d="M274.2,768c0-1,1.6-1,1.8,0Z" transform="translate(-22.97)"/><path class="cls-2" d="M346.3,771.5Z" transform="translate(-22.97)"/><path class="cls-2" d="M269.5,776.3c0-.6.7-.5,1.2-.6C270.6,776.2,269.9,776.1,269.5,776.3Z" transform="translate(-22.97)"/><path class="cls-2" d="M295.5,776.3c1.5.2,0,2.3-1.2,1.8C294.5,777.3,295.3,777.1,295.5,776.3Z" transform="translate(-22.97)"/><path class="cls-2" d="M299.6,778.6Z" transform="translate(-22.97)"/><path class="cls-1" d="M271.8,779.2c.9-1.9,1.5,2.3,0,0Z" transform="translate(-22.97)"/><path class="cls-2" d="M276,788.1c-.1,1.8-2.5-.6,0,0Z" transform="translate(-22.97)"/></svg>